<svg xmlns="http://www.w3.org/2000/svg" width="191" height="39" viewBox="0 0 191 39"><g><g><g><path fill="#ff9750" d="M32.6 25.3l-7.1 7.1c-1.6 1.6-3.8 2.5-6 2.5-2.3 0-4.4-.9-6-2.5l-6.9-6.9c-1.6-1.6-2.5-3.8-2.5-6s.9-4.4 2.5-6l6.9-6.9c1.6-1.6 3.7-2.5 6-2.5s4.4.9 6 2.5l7 7 2.9-2.9-7-7C26 1.3 22.8 0 19.5 0c-3.3 0-6.5 1.3-8.9 3.7l-6.9 6.9C1.3 13 0 16.2 0 19.5c0 3.4 1.3 6.5 3.7 8.9l6.9 6.9c2.4 2.4 5.6 3.7 8.9 3.7 3.4 0 6.6-1.3 8.9-3.7l7.1-7.1z"/></g><g><g><g><path fill="#261751" d="M54.7 26.4c-3.7 0-6.6-3-6.6-6.9 0-3.9 2.9-6.9 6.6-6.9 2 0 3.4.8 4.7 1.8l1.9-2.9c-1.9-1.5-4.2-2.3-6.6-2.3-2.9 0-5.5 1.1-7.5 3-1.9 1.9-3 4.5-3 7.3s1.1 5.4 3 7.3c1.9 1.9 4.6 3 7.5 3 2.6 0 5-.8 6.9-2.4l-2-2.9c-1.5 1.2-3.2 1.9-4.9 1.9z"/></g><g><path fill="#261751" d="M71 26.4c-2.4 0-4.3-1.9-4.3-4.4 0-2.4 1.9-4.4 4.3-4.4s4.3 1.9 4.3 4.4c0 2.6-1.9 4.4-4.3 4.4zm0-12c-4.6 0-8 3.3-8 7.7s3.4 7.7 8 7.7 8-3.3 8-7.7-3.4-7.7-8-7.7z"/></g><g><path fill="#261751" d="M89.2 14.4c-1.5 0-3.1.7-4.1 1.9l-.1.2v-1.8h-3.8v14.7H85v-9.6c.6-1 1.9-2.1 3.3-2.1 1.8 0 3 1.2 3 3v8.7h3.8v-9.1c-.1-3.5-2.5-5.9-5.9-5.9z"/></g><g><path fill="#261751" d="M103.2 25l-3.4-10.3h-3.9l5.2 14.7h4.2l5.2-14.7h-3.9z"/></g><g><path fill="#261751" d="M114.5 20.5c.5-1.9 2.1-3.1 3.9-3.1 1.8 0 3.2 1.2 3.7 3.1v.1h-7.6zm4-6.1c-4.3 0-7.6 3.4-7.6 7.7 0 4.5 3.3 7.7 7.8 7.7 2.5 0 4.6-.9 6.2-2.6l-2.2-2.2c-1.2 1.2-2.6 1.8-4 1.8-2.2 0-3.8-1.4-4.2-3.5v-.1h11.2c.1-.4.1-.9.1-1.4 0-4.2-3.2-7.4-7.3-7.4z"/></g><g><path fill="#261751" d="M156.3 21.7l2.7-8.2 2.7 8.2zm.5-12.2l-7.1 19.9h4.1l1.5-4.5h7.4v.1l1.5 4.5h4.1l-7.1-19.9h-4.4z"/></g><g><path fill="#261751" d="M187.3 9.5h3.8v19.9h-3.8z"/></g><g><path fill="#261751" d="M143.7 24.4v-6.3h3.5v-3.3h-3.5v-3.5h-3.8v13.3c0 3.4 1.8 5.2 5.5 5.2.7 0 1.4-.1 2-.2v-3.1c-.4 0-.9.1-1.3.1-1.7-.1-2.4-.7-2.4-2.2z"/></g><g><path fill="#261751" d="M177.9 19.3h-4.3v-6h4.3c1.6 0 3 1.3 3 3s-1.3 3-3 3zm0-9.8h-8.1v19.9h3.8v-6.3h4.3c3.8 0 6.8-3.1 6.8-6.8 0-3.7-3-6.8-6.8-6.8z"/></g><g><path fill="#261751" d="M132.1 16.2l-.1.1v-1.6h-3.7v14.7h3.7v-8.8c.7-1.5 2.2-2.4 3.9-2.4.4 0 .8.1 1.2.2v-4h-.4c-1.8 0-3.4.6-4.6 1.8z"/></g></g><g><g><path fill="#ff9750" d="M21.5 24.8l2.9 2.9 5.1-5.1c.8-.8 1.3-1.9 1.3-3.1 0-1.2-.5-2.2-1.3-3.1l-5.1-5.1-2.9 2.9 5.3 5.3z"/></g><g><path fill="#ff9750" d="M17.4 14.2l-2.9-2.9-5.1 5.1c-.8.8-1.3 1.9-1.3 3.1 0 1.2.5 2.3 1.3 3.1l5.1 5.1 2.9-2.9-5.3-5.3z"/></g></g></g></g></g></svg>