<?xml version="1.0" encoding="utf-8"?>
<!-- Generator: Adobe Illustrator 22.1.0, SVG Export Plug-In . SVG Version: 6.00 Build 0)  -->
<svg version="1.1" id="Layer_1" xmlns="http://www.w3.org/2000/svg" xmlns:xlink="http://www.w3.org/1999/xlink" x="0px" y="0px"
	 viewBox="0 0 66.6 26" style="enable-background:new 0 0 66.6 26;" xml:space="preserve">
<style type="text/css">
	.st0{fill:#010101;}
	.st1{fill:#EC2227;}
	.st2{fill:#EC2427;}
</style>
<g id="letter_x5F_h">
	<path class="st0" d="M9.5,16.6c-0.8-0.7-1.7-1.4-2.5-2.1l-3.6,0l0-7.8l-3,0l0,18.7l3,0l0-0.5c-1,0-2,0-3,0c1,0,2,0,3,0l0-8.3
		L9.5,16.6z"/>
	<path class="st0" d="M16,7.4l0,7.5l-3.1,0c-0.6,0.7-1.4,1.3-2.1,1.9c0.8-0.6,1.5-1.3,2.1-1.9l-4.4,0c0.8,0.7,1.6,1.3,2.4,2l5.1,0
		l0,8.4l3,0l0-18L16,7.4z"/>
</g>
<path class="st0" d="M47.5,16.4c0,1.2-0.5,2.3-1.6,3.1c-1,0.9-2.3,1.3-3.8,1.3c-1.5,0-2.7-0.4-3.8-1.3c-1.1-0.9-1.6-1.9-1.6-3.1
	c0-1.2,0.5-2.3,1.6-3.1c1-0.9,2.3-1.3,3.8-1.3c1.5,0,2.7,0.4,3.8,1.3C46.9,14.1,47.5,15.1,47.5,16.4z M46.6,16.4
	c0-1-0.4-1.9-1.3-2.6c-0.9-0.7-1.9-1.1-3.2-1.1c-1.2,0-2.3,0.4-3.2,1.1c-0.9,0.7-1.3,1.6-1.3,2.6c0,1,0.4,1.9,1.3,2.6
	c0.9,0.7,1.9,1.1,3.2,1.1c1.2,0,2.3-0.4,3.2-1.1C46.2,18.3,46.6,17.4,46.6,16.4z M44.6,15.7l0,1.5l-5.1,0l0-1.5L44.6,15.7z"/>
<g id="pdf">
	<path class="st1" d="M28.1,8.4c-1.4-1-3.5-1.5-6.4-1.5c-2.4,0-4.2,0.2-5.7,0.4l0,15.9c0.7,0.1,2.6-4.5,3.4-4.5
		c2.9,0,7.3-1.2,8.8-2.5c1.2-1,1.8-2.3,1.8-3.9C30.1,10.6,29.3,9.3,28.1,8.4z M21.8,16.4c-1.1,0-2-0.1-2.7-0.2l0-7.5
		c0.6-0.1,1.7-0.2,3.1-0.2c3.6,0,6,1.2,6,3.8C28.1,15,25.7,16.4,21.8,16.4z"/>
	<path class="st1" d="M33,7.9c1.8-0.2,3.9-0.4,6.2-0.4c4.2,0,7.1,0.8,9.1,2.2c2,1.5,3.2,3.5,3.2,6.5c0,2.9-1.1,5.3-3.2,7
		c-2.1,1.7-5.6,2.6-9.9,2.6c-2.1,0-3.8-0.1-5.3-0.2L33,7.9L33,7.9z M35.9,23.8c0.7,0.1,1.8,0.1,2.9,0.1c6.2,0,9.6-2.8,9.5-7.7
		c0-4.2-3-6.9-9.1-6.9c-1.5,0-2.6,0.1-3.4,0.2L35.9,23.8L35.9,23.8z"/>
	<path class="st1" d="M54,7.8l12.1,0l0,2l-9.2,0l0,6l8.5,0l0,1.9l-8.5,0l0,8.2l-2.9,0L54,7.8z"/>
</g>
<g id="complete_x5F_arror">
	<path id="black_x5F_arrow" class="st0" d="M28.5,2.7L0.3,2.8l0,1.7l30.4-0.1C29.9,4,29.2,3.3,28.5,2.7z"/>
	<path id="red_x5F_arrow" class="st2" d="M31.6,2.7c0.7,0.6,1.5,1.2,2.2,1.7l22.2-0.1l-0.6,2.7l4.4-3.5l-4.1-3.5L56,2.7"/>
</g>
</svg>
