<?xml version="1.0" encoding="utf-8"?>
<!-- Generator: Adobe Illustrator 16.0.0, SVG Export Plug-In . SVG Version: 6.00 Build 0)  -->
<!DOCTYPE svg PUBLIC "-//W3C//DTD SVG 1.1//EN" "http://www.w3.org/Graphics/SVG/1.1/DTD/svg11.dtd" [
	<!ENTITY ns_extend "http://ns.adobe.com/Extensibility/1.0/">
	<!ENTITY ns_ai "http://ns.adobe.com/AdobeIllustrator/10.0/">
	<!ENTITY ns_graphs "http://ns.adobe.com/Graphs/1.0/">
	<!ENTITY ns_vars "http://ns.adobe.com/Variables/1.0/">
	<!ENTITY ns_imrep "http://ns.adobe.com/ImageReplacement/1.0/">
	<!ENTITY ns_sfw "http://ns.adobe.com/SaveForWeb/1.0/">
	<!ENTITY ns_custom "http://ns.adobe.com/GenericCustomNamespace/1.0/">
	<!ENTITY ns_adobe_xpath "http://ns.adobe.com/XPath/1.0/">
]>
<svg version="1.1" id="complete_x5F_logo" xmlns:x="&ns_extend;" xmlns:i="&ns_ai;" xmlns:graph="&ns_graphs;"
	 xmlns="http://www.w3.org/2000/svg" xmlns:xlink="http://www.w3.org/1999/xlink" x="0px" y="0px" width="256px" height="120px"
	 viewBox="0 0 256 120" enable-background="new 0 0 256 120" xml:space="preserve">
<metadata>
	<sfw  xmlns="&ns_sfw;">
		<slices></slices>
		<sliceSourceBounds  width="236.72" height="92.183" x="385.141" y="454.409" bottomLeftOrigin="true"></sliceSourceBounds>
	</sfw>
</metadata>
<g id="letter_x5F_h">
	<path d="M46.767,73.008c-2.986-2.539-6.152-4.986-9.084-7.554l-12.865,0.028l-0.064-28.104l-10.938,0.025l0.153,67.178
		l10.938-0.025l-0.004-1.645c-3.632,0.008-7.264,0.016-10.898,0.023c3.634-0.008,7.266-0.018,10.898-0.023l-0.068-29.854
		L46.767,73.008z"/>
	<path d="M70.17,39.803l0.062,27.095l-11.125,0.025c-2.307,2.401-4.869,4.67-7.624,6.938c2.755-2.268,5.315-4.535,7.624-6.938
		l-15.969,0.035c2.827,2.473,5.876,4.837,8.756,7.279l18.355-0.041l0.069,30.355l10.662-0.021l-0.148-64.753L70.17,39.803z"/>
</g>
<path d="M183.476,72.205c0.011,4.371-1.868,8.102-5.64,11.195c-3.764,3.097-8.316,4.648-13.65,4.66
	c-5.334,0.013-9.889-1.52-13.673-4.599c-3.784-3.077-5.681-6.799-5.69-11.17c-0.011-4.366,1.869-8.101,5.64-11.198
	c3.771-3.1,8.317-4.659,13.651-4.67c5.334-0.012,9.895,1.521,13.672,4.609C181.57,64.114,183.466,67.839,183.476,72.205z
	 M180.313,72.212c-0.008-3.655-1.596-6.776-4.752-9.36c-3.157-2.583-6.975-3.871-11.442-3.86c-4.467,0.01-8.277,1.315-11.432,3.914
	c-3.16,2.598-4.73,5.723-4.724,9.382c0.009,3.665,1.594,6.779,4.767,9.357c3.165,2.572,6.981,3.857,11.449,3.849
	c4.468-0.011,8.277-1.313,11.425-3.901C178.755,79,180.322,75.877,180.313,72.212z M173.32,69.678l0.041,5.316L154.953,75.1
	l-0.033-5.318L173.32,69.678z"/>
<g id="pdf">
	<path fill="#ED1C24" d="M113.654,43.691c-4.895-3.511-12.591-5.449-23.091-5.425c-8.548,0.02-15.261,0.62-20.391,1.318
		l0.131,57.234c2.445,0.484,9.235-16.064,12.41-16.072c10.378-0.023,26.25-4.368,31.856-9.175c4.145-3.435,6.33-8.134,6.315-14.103
		C120.875,51.602,118.177,46.813,113.654,43.691z M90.999,72.497c-3.932,0.009-7.184-0.19-9.763-0.702l-0.062-27.151
		c2.033-0.42,5.963-0.741,11.114-0.753c13.012-0.03,21.563,4.407,21.583,13.632C113.895,67.158,105.23,72.465,90.999,72.497z"/>
	<path fill="#ED1C24" d="M131.283,41.572c6.353-0.784,13.9-1.38,22.176-1.399c14.976-0.034,25.652,2.734,32.736,8.007
		c7.205,5.275,11.42,12.768,11.443,23.257c0.023,10.58-4.037,19.246-11.568,25.226c-7.533,6.079-19.996,9.38-35.697,9.415
		c-7.43,0.018-13.661-0.258-18.938-0.725l-0.146-63.781H131.283z M141.839,98.881c2.643,0.385,6.478,0.467,10.547,0.457
		c22.295-0.051,34.38-10.084,34.34-27.591c0.083-15.295-10.721-24.985-32.776-24.935c-5.396,0.012-9.473,0.406-12.228,0.893
		L141.839,98.881L141.839,98.881z"/>
	<path fill="#ED1C24" d="M206.834,41.247l43.511-0.099l0.016,7.022l-33.082,0.076l0.049,21.547l30.561-0.07l0.016,6.93l-30.56,0.07
		l0.065,29.346l-10.428,0.023L206.834,41.247z"/>
</g>
<g id="complete_x5F_arror">
	<path id="black_x5F_arrow" d="M115.125,23.121L13.641,23.365l0.014,6.232l109.283-0.25
		C120.068,27.532,117.634,25.299,115.125,23.121z"/>
	<path id="red_x5F_arrow" fill="#ED1F24" d="M126.533,23.093c2.646,2.071,5.234,4.176,7.846,6.23l80.055-0.183l-2.198,9.729
		l15.756-12.517l-14.86-12.444l1.181,8.967"/>
</g>
</svg>
