<?xml version="1.0" encoding="utf-8"?>
<!-- Generator: Adobe Illustrator 22.1.0, SVG Export Plug-In . SVG Version: 6.00 Build 0)  -->
<svg version="1.1" id="Layer_1" xmlns="http://www.w3.org/2000/svg" xmlns:xlink="http://www.w3.org/1999/xlink" x="0px" y="0px"
	 viewBox="0 0 200 40" style="enable-background:new 0 0 200 40;" xml:space="preserve">
<style type="text/css">
	.st0{fill:#FFFFFF;}
	.st1{stroke:#000000;stroke-width:0.25;stroke-miterlimit:10;}
	.st2{fill:none;}
	.st3{fill:#F2EA29;stroke:#EBEA66;stroke-width:0.5;stroke-miterlimit:10;}
	.st4{fill:#8ABB6A;stroke:#8ABB6A;stroke-width:0.5;stroke-miterlimit:10;}
	.st5{fill:#70BF44;stroke:#72BF44;stroke-width:0.5;stroke-miterlimit:10;}
</style>
<g>
	<g id="ProcessLetter">
		<path class="st0" d="M11.2,21.4V24c0,1,0,1.6,0,1.8c0,0.2,0.1,0.4,0.1,0.6c0.1,0.2,0.3,0.3,0.6,0.4c0.1,0,0.4,0.1,0.9,0.1
			c0.1,0,0.1,0.1,0.1,0.2c0,0.2-0.1,0.2-0.2,0.2c-0.9,0-1.7-0.1-2.6-0.1c-0.9,0-1.8,0-2.6,0.1c-0.1,0-0.1-0.1-0.1-0.2
			c0-0.2,0.1-0.2,0.2-0.2c0.4,0,0.7-0.1,0.8-0.1c0.2-0.1,0.3-0.2,0.4-0.4C9,26.1,9.1,25.3,9.1,24v-6.5c0-0.9,0-1.5,0-1.7
			c0-0.2-0.1-0.4-0.1-0.6c-0.1-0.2-0.3-0.3-0.6-0.3c-0.1,0-0.4-0.1-0.9-0.1c-0.1,0-0.2-0.1-0.2-0.2c0-0.2,0.1-0.2,0.2-0.2
			c0.8,0,1.7,0.1,2.7,0.1l2.9-0.1c3.4,0,5.1,1.2,5.1,3.5c0,2.5-1.9,3.8-5.6,3.8C12.1,21.4,11.6,21.4,11.2,21.4z M11.2,20.7
			c0.4,0.1,0.7,0.1,1.1,0.1c1.3,0,2.2-0.3,2.8-1c0.4-0.5,0.7-1.2,0.7-2c0-1-0.3-1.8-0.9-2.3c-0.5-0.4-1.3-0.7-2.2-0.7
			c-0.7,0-1.1,0.1-1.3,0.4c-0.2,0.2-0.2,1-0.2,2.3V20.7z"/>
		<path class="st0" d="M23.5,21.1V24c0,0.9,0,1.6,0,1.8c0,0.2,0.1,0.4,0.2,0.6c0.1,0.2,0.3,0.3,0.5,0.4c0.1,0,0.4,0.1,0.9,0.1
			c0.1,0,0.1,0.1,0.1,0.2c0,0.1-0.1,0.2-0.2,0.2c-1.1,0-2-0.1-2.6-0.1c-0.6,0-1.4,0-2.5,0.1c-0.1,0-0.2-0.1-0.2-0.2
			c0-0.2,0.1-0.2,0.2-0.2c0.4,0,0.7-0.1,0.8-0.1c0.2-0.1,0.3-0.2,0.4-0.3c0.1-0.3,0.2-1.1,0.2-2.4v-6.5c0-0.9,0-1.5,0-1.7
			c0-0.2-0.1-0.4-0.2-0.6c-0.1-0.2-0.3-0.3-0.6-0.3c-0.1,0-0.4-0.1-0.9-0.1c-0.1,0-0.2-0.1-0.2-0.2c0-0.2,0.1-0.2,0.2-0.2
			c0.8,0,1.7,0.1,2.6,0.1l3-0.1c1.8,0,3.1,0.4,3.9,1.1c0.6,0.6,1,1.3,1,2.3c0,0.8-0.3,1.5-0.8,2c-0.5,0.6-1.3,0.9-2.2,1.2
			c0.9,1.6,1.8,3.1,2.6,4.5c0.5,0.7,0.8,1.2,1.1,1.4c0.2,0.1,0.6,0.2,1.1,0.3c0.1,0,0.1,0.1,0.1,0.2c0,0.2,0,0.2-0.1,0.2
			c-1,0-1.6-0.1-1.9-0.1c-0.7,0-1.2,0-1.7,0c-0.2-0.5-0.4-0.9-0.6-1.4c-1.6-2.9-2.4-4.5-2.6-4.8c-0.1,0-0.3,0-0.6,0
			C24.1,21.1,23.8,21.1,23.5,21.1z M23.5,20.5c0.4,0,0.7,0.1,1.2,0.1c1.2,0,2.1-0.3,2.7-0.9c0.4-0.5,0.6-1.1,0.6-1.9
			c0-1.9-1-2.9-3-2.9c-0.7,0-1.1,0.1-1.3,0.3c-0.1,0.2-0.2,0.8-0.2,1.6v0.7V20.5z"/>
		<path class="st0" d="M39.3,13.9c2.2,0,3.9,0.7,5.3,2.2c1.1,1.2,1.7,2.8,1.7,4.7c0,2.1-0.7,3.9-2.2,5.2c-1.3,1.1-2.9,1.7-4.8,1.7
			c-2.2,0-3.9-0.7-5.2-2.2c-1.1-1.3-1.7-2.8-1.7-4.7c0-2.1,0.7-3.8,2.2-5.2C35.8,14.5,37.4,13.9,39.3,13.9z M39.3,14.5
			c-1.4,0-2.5,0.6-3.4,1.9c-0.7,1.1-1.1,2.5-1.1,4.3c0,2,0.5,3.6,1.4,4.8c0.8,1,1.8,1.5,3.1,1.5c1.4,0,2.6-0.6,3.4-1.9
			c0.7-1.1,1.1-2.5,1.1-4.3c0-2-0.5-3.6-1.4-4.8C41.5,15,40.5,14.5,39.3,14.5z"/>
		<path class="st0" d="M59.2,14.4c0.1,0.9,0.2,2,0.3,3.1c0,0,0,0,0,0c0,0.1-0.1,0.2-0.2,0.2c0,0-0.1,0-0.1,0c-0.1,0-0.1-0.1-0.2-0.2
			c-0.5-1-1.1-1.8-1.6-2.3c-0.7-0.6-1.4-0.8-2.3-0.8c-1.4,0-2.6,0.6-3.4,1.9c-0.8,1.1-1.2,2.6-1.2,4.3c0,1.8,0.5,3.2,1.5,4.4
			c0.9,1,1.9,1.5,3.2,1.5c1.9,0,3.4-0.8,4.4-2.5c0-0.1,0.1-0.1,0.1-0.1c0.1,0,0.1,0,0.2,0.1c0.1,0,0.2,0.1,0.2,0.2c0,0,0,0.1,0,0.1
			c-1.2,2.2-3,3.3-5.3,3.3c-2.1,0-3.8-0.7-5.1-2.2c-1.1-1.3-1.7-2.8-1.7-4.7c0-2.1,0.7-3.8,2.2-5.2c1.3-1.1,2.8-1.7,4.7-1.7
			c0.7,0,1.5,0.1,2.3,0.3c0.6,0.2,1.1,0.2,1.5,0.2C58.8,14.4,59,14.4,59.2,14.4z"/>
		<path class="st0" d="M71,27.3c-1.6,0-3.2-0.1-4.7-0.1c-1.7,0-3.3,0-4.9,0.1c-0.1,0-0.2-0.1-0.2-0.2c0-0.1,0.1-0.2,0.2-0.2
			c0.4,0,0.7-0.1,0.8-0.1c0.2-0.1,0.3-0.2,0.4-0.3c0.2-0.3,0.2-1.1,0.2-2.4v-6.5c0-0.9,0-1.5,0-1.7c0-0.2-0.1-0.4-0.2-0.6
			c-0.1-0.2-0.2-0.3-0.5-0.3c-0.1,0-0.4-0.1-0.8-0.1c-0.1,0-0.2-0.1-0.2-0.2c0-0.2,0.1-0.3,0.2-0.3c1.4,0,3,0.1,4.8,0.1
			c1.7,0,3.2,0,4.6-0.1c0.1,1.1,0.2,2.2,0.3,3.1c0,0,0,0,0,0c0,0.1-0.1,0.1-0.2,0.2c0,0-0.1,0-0.1,0c-0.1,0-0.2,0-0.2-0.1
			c-0.3-0.8-0.7-1.4-1.2-1.8c-0.5-0.4-1.4-0.7-2.7-0.7c-0.8,0-1.3,0.1-1.4,0.4c-0.1,0.2-0.2,0.7-0.2,1.5v0.7v2.6c0.2,0,0.5,0,1,0
			c1.2,0,1.9-0.1,2.3-0.4c0.3-0.3,0.6-0.7,0.7-1.2c0-0.1,0.1-0.2,0.3-0.2c0.1,0,0.2,0.1,0.2,0.2c0,0.8,0,1.5,0,1.9
			c0,0.6,0,1.3,0,2.1c0,0.1-0.1,0.2-0.2,0.2c-0.1,0-0.2-0.1-0.3-0.2c-0.2-0.7-0.4-1.1-0.7-1.4c-0.5-0.3-1.2-0.4-2.2-0.4
			c-0.5,0-0.8,0-1,0V24c0,1.2,0.1,1.9,0.3,2.2c0.1,0.2,0.4,0.4,0.7,0.5c0.2,0,0.5,0.1,1,0.1c1.4,0,2.4-0.3,3.1-0.9
			c0.5-0.4,0.9-1,1.4-1.8c0-0.1,0.1-0.1,0.2-0.1c0,0,0.1,0,0.1,0c0.1,0,0.2,0.1,0.2,0.2c0,0,0,0,0,0.1C71.7,25.3,71.4,26.3,71,27.3z
			"/>
		<path class="st0" d="M81.1,14.2c0,0.3,0.1,1.3,0.2,3c0,0.1-0.1,0.2-0.2,0.2c0,0-0.1,0-0.1,0c-0.1,0-0.1,0-0.2-0.1
			c-0.8-1.9-1.9-2.8-3.3-2.8c-0.7,0-1.2,0.2-1.6,0.7c-0.4,0.4-0.5,0.9-0.5,1.6c0,0.9,0.7,1.7,2,2.3l1,0.5c1.4,0.7,2.3,1.3,2.8,1.9
			c0.4,0.6,0.7,1.3,0.7,2.3c0,1.3-0.5,2.3-1.4,3c-0.8,0.6-2,0.9-3.4,0.9c-1.1,0-2.3-0.2-3.4-0.6c-0.3-1-0.5-2-0.6-3c0,0,0-0.1,0-0.1
			c0-0.1,0.1-0.2,0.2-0.2c0,0,0.1,0,0.1,0c0.1,0,0.2,0,0.2,0.1c0.5,1,1,1.8,1.7,2.4c0.7,0.6,1.3,0.8,2,0.8c0.8,0,1.5-0.3,2-0.8
			c0.4-0.5,0.6-1.1,0.6-1.8c0-0.7-0.2-1.3-0.7-1.8c-0.4-0.4-1-0.8-1.9-1.3L76.3,21c-1.2-0.6-1.9-1.2-2.3-1.7
			c-0.4-0.5-0.5-1.2-0.5-2.1c0-1,0.4-1.8,1.3-2.4c0.7-0.5,1.7-0.8,2.8-0.8c0.5,0,1.1,0.1,1.8,0.2c0.3,0.1,0.6,0.1,1,0.1
			C80.5,14.3,80.8,14.3,81.1,14.2z"/>
		<path class="st0" d="M91.6,14.2c0,0.3,0.1,1.3,0.2,3c0,0.1-0.1,0.2-0.2,0.2c0,0-0.1,0-0.1,0c-0.1,0-0.1,0-0.2-0.1
			c-0.8-1.9-1.9-2.8-3.3-2.8c-0.7,0-1.2,0.2-1.6,0.7c-0.4,0.4-0.5,0.9-0.5,1.6c0,0.9,0.7,1.7,2,2.3l1,0.5c1.4,0.7,2.3,1.3,2.8,1.9
			c0.4,0.6,0.7,1.3,0.7,2.3c0,1.3-0.5,2.3-1.4,3c-0.8,0.6-2,0.9-3.4,0.9c-1.1,0-2.3-0.2-3.4-0.6c-0.3-1-0.5-2-0.6-3c0,0,0-0.1,0-0.1
			c0-0.1,0.1-0.2,0.2-0.2c0,0,0.1,0,0.1,0c0.1,0,0.2,0,0.2,0.1c0.5,1,1,1.8,1.7,2.4c0.7,0.6,1.3,0.8,2,0.8c0.8,0,1.5-0.3,2-0.8
			c0.4-0.5,0.6-1.1,0.6-1.8c0-0.7-0.2-1.3-0.7-1.8c-0.4-0.4-1-0.8-1.9-1.3L86.9,21c-1.2-0.6-1.9-1.2-2.3-1.7
			C84.2,18.7,84,18,84,17.2c0-1,0.4-1.8,1.3-2.4c0.7-0.5,1.7-0.8,2.8-0.8c0.5,0,1.1,0.1,1.8,0.2c0.3,0.1,0.6,0.1,1,0.1
			C91.1,14.3,91.4,14.3,91.6,14.2z"/>
	</g>
	<path class="st1" d="M94.3,26.9c0.5-0.1,0.8-0.1,0.9-0.1c0.2-0.1,0.3-0.2,0.4-0.3c0.1-0.2,0.2-0.5,0.2-1c0-0.2,0-0.7,0-1.4v-6.5
		c0-0.9,0-1.5,0-1.7c0-0.2-0.1-0.4-0.2-0.6c-0.1-0.2-0.3-0.3-0.5-0.3c-0.1,0-0.4-0.1-0.9-0.1c-0.1,0-0.1-0.1-0.1-0.2
		c0-0.2,0-0.2,0.1-0.2c0.2,0,0.6,0,1.4,0c0.5,0,0.9,0,1.2,0c0.3,0,0.8,0,1.4,0c0.6,0,1,0,1.2,0c0.1,0,0.2,0.1,0.2,0.3
		c0,0.1-0.1,0.2-0.2,0.2c-0.5,0-0.8,0.1-0.9,0.1c-0.2,0.1-0.3,0.2-0.4,0.3c-0.1,0.3-0.2,1-0.2,2.3V24c0,1,0,1.6,0,1.8
		c0,0.2,0.1,0.4,0.2,0.6c0.1,0.2,0.3,0.3,0.5,0.3c0.1,0,0.4,0.1,0.9,0.1c0.1,0,0.2,0.1,0.2,0.2c0,0.1-0.1,0.2-0.2,0.2
		c-0.2,0-0.5,0-0.9,0c-0.8,0-1.4,0-1.8,0c0,0-0.9,0-2.5,0.1c-0.1,0-0.1-0.1-0.1-0.2C94.1,27,94.2,26.9,94.3,26.9z"/>
	<path class="st1" d="M103.8,16.1h-0.3l0.1,7.9c0,1.2,0.1,2,0.4,2.3c0.2,0.3,0.6,0.5,1.4,0.6c0.1,0,0.2,0.1,0.2,0.2
		c0,0.1-0.1,0.2-0.2,0.2c-0.7,0-1.4-0.1-2.1-0.1c-0.8,0-1.5,0-2.2,0.1c-0.1,0-0.2-0.1-0.2-0.2c0-0.1,0-0.2,0.1-0.2
		c0.6-0.1,1.1-0.3,1.2-0.6c0.3-0.4,0.4-1.1,0.4-2.3l0.1-6.5c0-0.1,0-0.3,0-0.3c0-1-0.1-1.6-0.3-1.9c-0.2-0.3-0.7-0.5-1.5-0.6
		c-0.1,0-0.2-0.1-0.2-0.3c0-0.2,0.1-0.3,0.2-0.3c0.1,0,0.4,0,0.7,0c0.6,0,1,0,1.2,0c0.9,0,1.6,0,2.2,0c0.2,0.4,0.7,1.2,1.4,2.2
		l4.1,6.1c0.7,1.1,1.2,1.9,1.5,2.3v-2.1l0-5.4c0-1-0.1-1.8-0.4-2.2c-0.2-0.3-0.6-0.5-1.3-0.5c-0.1,0-0.2-0.1-0.2-0.2
		c0-0.2,0.1-0.3,0.2-0.3c0.8,0,1.4,0.1,2.1,0.1c0.7,0,1.4,0,2.1-0.1c0.1,0,0.2,0.1,0.2,0.3c0,0.2-0.1,0.2-0.2,0.2
		c-0.6,0.1-1,0.3-1.2,0.6c-0.3,0.4-0.4,1.1-0.4,2.2l-0.1,6.5c0,0.4,0,0.7,0,0.9c0,0.5,0,1.2,0,2.1c-0.8,0.4-1.2,0.6-1.3,0.6
		c-0.1,0-0.1,0-0.2-0.1c-0.6-1-1.3-2.1-2-3.2L103.8,16.1z"/>
	<path class="st1" d="M127.5,14.4c0,0.9,0.1,1.9,0.3,3.1c0,0,0,0,0,0.1c0,0.1-0.1,0.1-0.2,0.2c0,0-0.1,0-0.1,0
		c-0.1,0-0.1-0.1-0.2-0.2c-0.5-1-1-1.7-1.6-2.2c-0.7-0.6-1.6-0.9-2.6-0.9c-1.4,0-2.6,0.7-3.5,2c-0.8,1.2-1.2,2.6-1.2,4.2
		c0,2,0.5,3.5,1.5,4.7c0.9,1,2,1.5,3.4,1.5c1,0,1.9-0.4,2.8-1.1c0.1-0.4,0.1-0.8,0.1-1.2c0-1,0-1.6,0-1.8c0-0.2-0.1-0.4-0.2-0.6
		c-0.1-0.2-0.3-0.3-0.5-0.3c-0.1,0-0.4-0.1-0.9-0.1c-0.1,0-0.2-0.1-0.2-0.2c0-0.1,0.1-0.2,0.2-0.2c1.1,0,2,0.1,2.5,0.1
		c0.4,0,1.2,0,2.3-0.1c0.1,0,0.1,0.1,0.1,0.2c0,0.1,0,0.2-0.1,0.2c-0.4,0-0.7,0.1-0.8,0.1c-0.1,0.1-0.3,0.2-0.4,0.3
		c-0.1,0.3-0.2,1-0.2,2.2c0,1.2,0,2.1,0.1,2.7c0,0.1-0.1,0.1-0.2,0.1c-0.3,0-0.7-0.1-1.1-0.1c-0.3,0-0.8,0.1-1.5,0.2
		c-0.9,0.2-1.7,0.3-2.4,0.3c-2.3,0-4.1-0.7-5.4-2.1c-1.1-1.2-1.7-2.8-1.7-4.7c0-2.2,0.8-3.9,2.3-5.2c1.3-1.1,2.9-1.7,4.8-1.7
		c0.7,0,1.5,0.1,2.3,0.3c0.5,0.1,0.9,0.2,1.3,0.2C127,14.4,127.2,14.4,127.5,14.4z"/>
</g>
<line class="st2" x1="-8091" y1="14.1" x2="8292" y2="14.1"/>
<line class="st2" x1="-8091" y1="27.7" x2="8292" y2="27.7"/>
<line class="st2" x1="139.5" y1="-8171" x2="139.5" y2="8212"/>
<line class="st2" x1="94" y1="-8171" x2="94" y2="8212"/>
<rect id="YellowBox" x="139.2" y="14.1" class="st3" width="17.9" height="13.6"/>
<rect id="LightGBox" x="157.1" y="14.1" class="st4" width="17.9" height="13.6"/>
<rect id="SharpGBox" x="175" y="14.1" class="st5" width="19.6" height="13.6"/>
</svg>
